<?xml version="1.0" encoding="utf-8"?>
<svg viewBox="3.663 5.523 66 66" xmlns="http://www.w3.org/2000/svg">
  <path d="M 3.663 5.523 L 5.663 5.523 L 5.663 7.523 L 3.663 7.523 L 3.663 5.523 Z M 5.663 5.523 L 7.663 5.523 L 7.663 7.523 L 5.663 7.523 L 5.663 5.523 Z M 7.663 5.523 L 9.663 5.523 L 9.663 7.523 L 7.663 7.523 L 7.663 5.523 Z M 9.663 5.523 L 11.663 5.523 L 11.663 7.523 L 9.663 7.523 L 9.663 5.523 Z M 11.663 5.523 L 13.663 5.523 L 13.663 7.523 L 11.663 7.523 L 11.663 5.523 Z M 13.663 5.523 L 15.663 5.523 L 15.663 7.523 L 13.663 7.523 L 13.663 5.523 Z M 15.663 5.523 L 17.663 5.523 L 17.663 7.523 L 15.663 7.523 L 15.663 5.523 Z M 19.663 5.523 L 21.663 5.523 L 21.663 7.523 L 19.663 7.523 L 19.663 5.523 Z M 27.663 5.523 L 29.663 5.523 L 29.663 7.523 L 27.663 7.523 L 27.663 5.523 Z M 33.663 5.523 L 35.663 5.523 L 35.663 7.523 L 33.663 7.523 L 33.663 5.523 Z M 39.663 5.523 L 41.663 5.523 L 41.663 7.523 L 39.663 7.523 L 39.663 5.523 Z M 41.663 5.523 L 43.663 5.523 L 43.663 7.523 L 41.663 7.523 L 41.663 5.523 Z M 45.663 5.523 L 47.663 5.523 L 47.663 7.523 L 45.663 7.523 L 45.663 5.523 Z M 47.663 5.523 L 49.663 5.523 L 49.663 7.523 L 47.663 7.523 L 47.663 5.523 Z M 49.663 5.523 L 51.663 5.523 L 51.663 7.523 L 49.663 7.523 L 49.663 5.523 Z M 55.663 5.523 L 57.663 5.523 L 57.663 7.523 L 55.663 7.523 L 55.663 5.523 Z M 57.663 5.523 L 59.663 5.523 L 59.663 7.523 L 57.663 7.523 L 57.663 5.523 Z M 59.663 5.523 L 61.663 5.523 L 61.663 7.523 L 59.663 7.523 L 59.663 5.523 Z M 61.663 5.523 L 63.663 5.523 L 63.663 7.523 L 61.663 7.523 L 61.663 5.523 Z M 63.663 5.523 L 65.663 5.523 L 65.663 7.523 L 63.663 7.523 L 63.663 5.523 Z M 65.663 5.523 L 67.663 5.523 L 67.663 7.523 L 65.663 7.523 L 65.663 5.523 Z M 67.663 5.523 L 69.663 5.523 L 69.663 7.523 L 67.663 7.523 L 67.663 5.523 Z M 3.663 7.523 L 5.663 7.523 L 5.663 9.523 L 3.663 9.523 L 3.663 7.523 Z M 15.663 7.523 L 17.663 7.523 L 17.663 9.523 L 15.663 9.523 L 15.663 7.523 Z M 25.663 7.523 L 27.663 7.523 L 27.663 9.523 L 25.663 9.523 L 25.663 7.523 Z M 27.663 7.523 L 29.663 7.523 L 29.663 9.523 L 27.663 9.523 L 27.663 7.523 Z M 29.663 7.523 L 31.663 7.523 L 31.663 9.523 L 29.663 9.523 L 29.663 7.523 Z M 37.663 7.523 L 39.663 7.523 L 39.663 9.523 L 37.663 9.523 L 37.663 7.523 Z M 49.663 7.523 L 51.663 7.523 L 51.663 9.523 L 49.663 9.523 L 49.663 7.523 Z M 55.663 7.523 L 57.663 7.523 L 57.663 9.523 L 55.663 9.523 L 55.663 7.523 Z M 67.663 7.523 L 69.663 7.523 L 69.663 9.523 L 67.663 9.523 L 67.663 7.523 Z M 3.663 9.523 L 5.663 9.523 L 5.663 11.523 L 3.663 11.523 L 3.663 9.523 Z M 7.663 9.523 L 9.663 9.523 L 9.663 11.523 L 7.663 11.523 L 7.663 9.523 Z M 9.663 9.523 L 11.663 9.523 L 11.663 11.523 L 9.663 11.523 L 9.663 9.523 Z M 11.663 9.523 L 13.663 9.523 L 13.663 11.523 L 11.663 11.523 L 11.663 9.523 Z M 15.663 9.523 L 17.663 9.523 L 17.663 11.523 L 15.663 11.523 L 15.663 9.523 Z M 19.663 9.523 L 21.663 9.523 L 21.663 11.523 L 19.663 11.523 L 19.663 9.523 Z M 21.663 9.523 L 23.663 9.523 L 23.663 11.523 L 21.663 11.523 L 21.663 9.523 Z M 25.663 9.523 L 27.663 9.523 L 27.663 11.523 L 25.663 11.523 L 25.663 9.523 Z M 33.663 9.523 L 35.663 9.523 L 35.663 11.523 L 33.663 11.523 L 33.663 9.523 Z M 37.663 9.523 L 39.663 9.523 L 39.663 11.523 L 37.663 11.523 L 37.663 9.523 Z M 43.663 9.523 L 45.663 9.523 L 45.663 11.523 L 43.663 11.523 L 43.663 9.523 Z M 49.663 9.523 L 51.663 9.523 L 51.663 11.523 L 49.663 11.523 L 49.663 9.523 Z M 51.663 9.523 L 53.663 9.523 L 53.663 11.523 L 51.663 11.523 L 51.663 9.523 Z M 55.663 9.523 L 57.663 9.523 L 57.663 11.523 L 55.663 11.523 L 55.663 9.523 Z M 59.663 9.523 L 61.663 9.523 L 61.663 11.523 L 59.663 11.523 L 59.663 9.523 Z M 61.663 9.523 L 63.663 9.523 L 63.663 11.523 L 61.663 11.523 L 61.663 9.523 Z M 63.663 9.523 L 65.663 9.523 L 65.663 11.523 L 63.663 11.523 L 63.663 9.523 Z M 67.663 9.523 L 69.663 9.523 L 69.663 11.523 L 67.663 11.523 L 67.663 9.523 Z M 3.663 11.523 L 5.663 11.523 L 5.663 13.523 L 3.663 13.523 L 3.663 11.523 Z M 7.663 11.523 L 9.663 11.523 L 9.663 13.523 L 7.663 13.523 L 7.663 11.523 Z M 9.663 11.523 L 11.663 11.523 L 11.663 13.523 L 9.663 13.523 L 9.663 11.523 Z M 11.663 11.523 L 13.663 11.523 L 13.663 13.523 L 11.663 13.523 L 11.663 11.523 Z M 15.663 11.523 L 17.663 11.523 L 17.663 13.523 L 15.663 13.523 L 15.663 11.523 Z M 19.663 11.523 L 21.663 11.523 L 21.663 13.523 L 19.663 13.523 L 19.663 11.523 Z M 23.663 11.523 L 25.663 11.523 L 25.663 13.523 L 23.663 13.523 L 23.663 11.523 Z M 29.663 11.523 L 31.663 11.523 L 31.663 13.523 L 29.663 13.523 L 29.663 11.523 Z M 31.663 11.523 L 33.663 11.523 L 33.663 13.523 L 31.663 13.523 L 31.663 11.523 Z M 37.663 11.523 L 39.663 11.523 L 39.663 13.523 L 37.663 13.523 L 37.663 11.523 Z M 41.663 11.523 L 43.663 11.523 L 43.663 13.523 L 41.663 13.523 L 41.663 11.523 Z M 47.663 11.523 L 49.663 11.523 L 49.663 13.523 L 47.663 13.523 L 47.663 11.523 Z M 55.663 11.523 L 57.663 11.523 L 57.663 13.523 L 55.663 13.523 L 55.663 11.523 Z M 59.663 11.523 L 61.663 11.523 L 61.663 13.523 L 59.663 13.523 L 59.663 11.523 Z M 61.663 11.523 L 63.663 11.523 L 63.663 13.523 L 61.663 13.523 L 61.663 11.523 Z M 63.663 11.523 L 65.663 11.523 L 65.663 13.523 L 63.663 13.523 L 63.663 11.523 Z M 67.663 11.523 L 69.663 11.523 L 69.663 13.523 L 67.663 13.523 L 67.663 11.523 Z M 3.663 13.523 L 5.663 13.523 L 5.663 15.523 L 3.663 15.523 L 3.663 13.523 Z M 7.663 13.523 L 9.663 13.523 L 9.663 15.523 L 7.663 15.523 L 7.663 13.523 Z M 9.663 13.523 L 11.663 13.523 L 11.663 15.523 L 9.663 15.523 L 9.663 13.523 Z M 11.663 13.523 L 13.663 13.523 L 13.663 15.523 L 11.663 15.523 L 11.663 13.523 Z M 15.663 13.523 L 17.663 13.523 L 17.663 15.523 L 15.663 15.523 L 15.663 13.523 Z M 21.663 13.523 L 23.663 13.523 L 23.663 15.523 L 21.663 15.523 L 21.663 13.523 Z M 23.663 13.523 L 25.663 13.523 L 25.663 15.523 L 23.663 15.523 L 23.663 13.523 Z M 25.663 13.523 L 27.663 13.523 L 27.663 15.523 L 25.663 15.523 L 25.663 13.523 Z M 29.663 13.523 L 31.663 13.523 L 31.663 15.523 L 29.663 15.523 L 29.663 13.523 Z M 35.663 13.523 L 37.663 13.523 L 37.663 15.523 L 35.663 15.523 L 35.663 13.523 Z M 41.663 13.523 L 43.663 13.523 L 43.663 15.523 L 41.663 15.523 L 41.663 13.523 Z M 49.663 13.523 L 51.663 13.523 L 51.663 15.523 L 49.663 15.523 L 49.663 13.523 Z M 55.663 13.523 L 57.663 13.523 L 57.663 15.523 L 55.663 15.523 L 55.663 13.523 Z M 59.663 13.523 L 61.663 13.523 L 61.663 15.523 L 59.663 15.523 L 59.663 13.523 Z M 61.663 13.523 L 63.663 13.523 L 63.663 15.523 L 61.663 15.523 L 61.663 13.523 Z M 63.663 13.523 L 65.663 13.523 L 65.663 15.523 L 63.663 15.523 L 63.663 13.523 Z M 67.663 13.523 L 69.663 13.523 L 69.663 15.523 L 67.663 15.523 L 67.663 13.523 Z M 3.663 15.523 L 5.663 15.523 L 5.663 17.523 L 3.663 17.523 L 3.663 15.523 Z M 15.663 15.523 L 17.663 15.523 L 17.663 17.523 L 15.663 17.523 L 15.663 15.523 Z M 19.663 15.523 L 21.663 15.523 L 21.663 17.523 L 19.663 17.523 L 19.663 15.523 Z M 23.663 15.523 L 25.663 15.523 L 25.663 17.523 L 23.663 17.523 L 23.663 15.523 Z M 27.663 15.523 L 29.663 15.523 L 29.663 17.523 L 27.663 17.523 L 27.663 15.523 Z M 29.663 15.523 L 31.663 15.523 L 31.663 17.523 L 29.663 17.523 L 29.663 15.523 Z M 31.663 15.523 L 33.663 15.523 L 33.663 17.523 L 31.663 17.523 L 31.663 15.523 Z M 33.663 15.523 L 35.663 15.523 L 35.663 17.523 L 33.663 17.523 L 33.663 15.523 Z M 43.663 15.523 L 45.663 15.523 L 45.663 17.523 L 43.663 17.523 L 43.663 15.523 Z M 45.663 15.523 L 47.663 15.523 L 47.663 17.523 L 45.663 17.523 L 45.663 15.523 Z M 47.663 15.523 L 49.663 15.523 L 49.663 17.523 L 47.663 17.523 L 47.663 15.523 Z M 51.663 15.523 L 53.663 15.523 L 53.663 17.523 L 51.663 17.523 L 51.663 15.523 Z M 55.663 15.523 L 57.663 15.523 L 57.663 17.523 L 55.663 17.523 L 55.663 15.523 Z M 67.663 15.523 L 69.663 15.523 L 69.663 17.523 L 67.663 17.523 L 67.663 15.523 Z M 3.663 17.523 L 5.663 17.523 L 5.663 19.523 L 3.663 19.523 L 3.663 17.523 Z M 5.663 17.523 L 7.663 17.523 L 7.663 19.523 L 5.663 19.523 L 5.663 17.523 Z M 7.663 17.523 L 9.663 17.523 L 9.663 19.523 L 7.663 19.523 L 7.663 17.523 Z M 9.663 17.523 L 11.663 17.523 L 11.663 19.523 L 9.663 19.523 L 9.663 17.523 Z M 11.663 17.523 L 13.663 17.523 L 13.663 19.523 L 11.663 19.523 L 11.663 17.523 Z M 13.663 17.523 L 15.663 17.523 L 15.663 19.523 L 13.663 19.523 L 13.663 17.523 Z M 15.663 17.523 L 17.663 17.523 L 17.663 19.523 L 15.663 19.523 L 15.663 17.523 Z M 19.663 17.523 L 21.663 17.523 L 21.663 19.523 L 19.663 19.523 L 19.663 17.523 Z M 23.663 17.523 L 25.663 17.523 L 25.663 19.523 L 23.663 19.523 L 23.663 17.523 Z M 27.663 17.523 L 29.663 17.523 L 29.663 19.523 L 27.663 19.523 L 27.663 17.523 Z M 31.663 17.523 L 33.663 17.523 L 33.663 19.523 L 31.663 19.523 L 31.663 17.523 Z M 35.663 17.523 L 37.663 17.523 L 37.663 19.523 L 35.663 19.523 L 35.663 17.523 Z M 39.663 17.523 L 41.663 17.523 L 41.663 19.523 L 39.663 19.523 L 39.663 17.523 Z M 43.663 17.523 L 45.663 17.523 L 45.663 19.523 L 43.663 19.523 L 43.663 17.523 Z M 47.663 17.523 L 49.663 17.523 L 49.663 19.523 L 47.663 19.523 L 47.663 17.523 Z M 51.663 17.523 L 53.663 17.523 L 53.663 19.523 L 51.663 19.523 L 51.663 17.523 Z M 55.663 17.523 L 57.663 17.523 L 57.663 19.523 L 55.663 19.523 L 55.663 17.523 Z M 57.663 17.523 L 59.663 17.523 L 59.663 19.523 L 57.663 19.523 L 57.663 17.523 Z M 59.663 17.523 L 61.663 17.523 L 61.663 19.523 L 59.663 19.523 L 59.663 17.523 Z M 61.663 17.523 L 63.663 17.523 L 63.663 19.523 L 61.663 19.523 L 61.663 17.523 Z M 63.663 17.523 L 65.663 17.523 L 65.663 19.523 L 63.663 19.523 L 63.663 17.523 Z M 65.663 17.523 L 67.663 17.523 L 67.663 19.523 L 65.663 19.523 L 65.663 17.523 Z M 67.663 17.523 L 69.663 17.523 L 69.663 19.523 L 67.663 19.523 L 67.663 17.523 Z M 19.663 19.523 L 21.663 19.523 L 21.663 21.523 L 19.663 21.523 L 19.663 19.523 Z M 21.663 19.523 L 23.663 19.523 L 23.663 21.523 L 21.663 21.523 L 21.663 19.523 Z M 23.663 19.523 L 25.663 19.523 L 25.663 21.523 L 23.663 21.523 L 23.663 19.523 Z M 25.663 19.523 L 27.663 19.523 L 27.663 21.523 L 25.663 21.523 L 25.663 19.523 Z M 29.663 19.523 L 31.663 19.523 L 31.663 21.523 L 29.663 21.523 L 29.663 19.523 Z M 33.663 19.523 L 35.663 19.523 L 35.663 21.523 L 33.663 21.523 L 33.663 19.523 Z M 37.663 19.523 L 39.663 19.523 L 39.663 21.523 L 37.663 21.523 L 37.663 19.523 Z M 39.663 19.523 L 41.663 19.523 L 41.663 21.523 L 39.663 21.523 L 39.663 19.523 Z M 41.663 19.523 L 43.663 19.523 L 43.663 21.523 L 41.663 21.523 L 41.663 19.523 Z M 43.663 19.523 L 45.663 19.523 L 45.663 21.523 L 43.663 21.523 L 43.663 19.523 Z M 45.663 19.523 L 47.663 19.523 L 47.663 21.523 L 45.663 21.523 L 45.663 19.523 Z M 5.663 21.523 L 7.663 21.523 L 7.663 23.523 L 5.663 23.523 L 5.663 21.523 Z M 9.663 21.523 L 11.663 21.523 L 11.663 23.523 L 9.663 23.523 L 9.663 21.523 Z M 13.663 21.523 L 15.663 21.523 L 15.663 23.523 L 13.663 23.523 L 13.663 21.523 Z M 15.663 21.523 L 17.663 21.523 L 17.663 23.523 L 15.663 23.523 L 15.663 21.523 Z M 17.663 21.523 L 19.663 21.523 L 19.663 23.523 L 17.663 23.523 L 17.663 21.523 Z M 19.663 21.523 L 21.663 21.523 L 21.663 23.523 L 19.663 23.523 L 19.663 21.523 Z M 25.663 21.523 L 27.663 21.523 L 27.663 23.523 L 25.663 23.523 L 25.663 21.523 Z M 27.663 21.523 L 29.663 21.523 L 29.663 23.523 L 27.663 23.523 L 27.663 21.523 Z M 29.663 21.523 L 31.663 21.523 L 31.663 23.523 L 29.663 23.523 L 29.663 21.523 Z M 31.663 21.523 L 33.663 21.523 L 33.663 23.523 L 31.663 23.523 L 31.663 21.523 Z M 41.663 21.523 L 43.663 21.523 L 43.663 23.523 L 41.663 23.523 L 41.663 21.523 Z M 45.663 21.523 L 47.663 21.523 L 47.663 23.523 L 45.663 23.523 L 45.663 21.523 Z M 49.663 21.523 L 51.663 21.523 L 51.663 23.523 L 49.663 23.523 L 49.663 21.523 Z M 51.663 21.523 L 53.663 21.523 L 53.663 23.523 L 51.663 23.523 L 51.663 21.523 Z M 53.663 21.523 L 55.663 21.523 L 55.663 23.523 L 53.663 23.523 L 53.663 21.523 Z M 55.663 21.523 L 57.663 21.523 L 57.663 23.523 L 55.663 23.523 L 55.663 21.523 Z M 57.663 21.523 L 59.663 21.523 L 59.663 23.523 L 57.663 23.523 L 57.663 21.523 Z M 61.663 21.523 L 63.663 21.523 L 63.663 23.523 L 61.663 23.523 L 61.663 21.523 Z M 63.663 21.523 L 65.663 21.523 L 65.663 23.523 L 63.663 23.523 L 63.663 21.523 Z M 67.663 21.523 L 69.663 21.523 L 69.663 23.523 L 67.663 23.523 L 67.663 21.523 Z M 5.663 23.523 L 7.663 23.523 L 7.663 25.523 L 5.663 25.523 L 5.663 23.523 Z M 9.663 23.523 L 11.663 23.523 L 11.663 25.523 L 9.663 25.523 L 9.663 23.523 Z M 13.663 23.523 L 15.663 23.523 L 15.663 25.523 L 13.663 25.523 L 13.663 23.523 Z M 17.663 23.523 L 19.663 23.523 L 19.663 25.523 L 17.663 25.523 L 17.663 23.523 Z M 23.663 23.523 L 25.663 23.523 L 25.663 25.523 L 23.663 25.523 L 23.663 23.523 Z M 31.663 23.523 L 33.663 23.523 L 33.663 25.523 L 31.663 25.523 L 31.663 23.523 Z M 35.663 23.523 L 37.663 23.523 L 37.663 25.523 L 35.663 25.523 L 35.663 23.523 Z M 39.663 23.523 L 41.663 23.523 L 41.663 25.523 L 39.663 25.523 L 39.663 23.523 Z M 43.663 23.523 L 45.663 23.523 L 45.663 25.523 L 43.663 25.523 L 43.663 23.523 Z M 47.663 23.523 L 49.663 23.523 L 49.663 25.523 L 47.663 25.523 L 47.663 23.523 Z M 51.663 23.523 L 53.663 23.523 L 53.663 25.523 L 51.663 25.523 L 51.663 23.523 Z M 53.663 23.523 L 55.663 23.523 L 55.663 25.523 L 53.663 25.523 L 53.663 23.523 Z M 55.663 23.523 L 57.663 23.523 L 57.663 25.523 L 55.663 25.523 L 55.663 23.523 Z M 57.663 23.523 L 59.663 23.523 L 59.663 25.523 L 57.663 25.523 L 57.663 23.523 Z M 65.663 23.523 L 67.663 23.523 L 67.663 25.523 L 65.663 25.523 L 65.663 23.523 Z M 67.663 23.523 L 69.663 23.523 L 69.663 25.523 L 67.663 25.523 L 67.663 23.523 Z M 5.663 25.523 L 7.663 25.523 L 7.663 27.523 L 5.663 27.523 L 5.663 25.523 Z M 7.663 25.523 L 9.663 25.523 L 9.663 27.523 L 7.663 27.523 L 7.663 25.523 Z M 15.663 25.523 L 17.663 25.523 L 17.663 27.523 L 15.663 27.523 L 15.663 25.523 Z M 25.663 25.523 L 27.663 25.523 L 27.663 27.523 L 25.663 27.523 L 25.663 25.523 Z M 37.663 25.523 L 39.663 25.523 L 39.663 27.523 L 37.663 27.523 L 37.663 25.523 Z M 41.663 25.523 L 43.663 25.523 L 43.663 27.523 L 41.663 27.523 L 41.663 25.523 Z M 47.663 25.523 L 49.663 25.523 L 49.663 27.523 L 47.663 27.523 L 47.663 25.523 Z M 51.663 25.523 L 53.663 25.523 L 53.663 27.523 L 51.663 27.523 L 51.663 25.523 Z M 55.663 25.523 L 57.663 25.523 L 57.663 27.523 L 55.663 27.523 L 55.663 25.523 Z M 57.663 25.523 L 59.663 25.523 L 59.663 27.523 L 57.663 27.523 L 57.663 25.523 Z M 59.663 25.523 L 61.663 25.523 L 61.663 27.523 L 59.663 27.523 L 59.663 25.523 Z M 63.663 25.523 L 65.663 25.523 L 65.663 27.523 L 63.663 27.523 L 63.663 25.523 Z M 67.663 25.523 L 69.663 25.523 L 69.663 27.523 L 67.663 27.523 L 67.663 25.523 Z M 7.663 27.523 L 9.663 27.523 L 9.663 29.523 L 7.663 29.523 L 7.663 27.523 Z M 11.663 27.523 L 13.663 27.523 L 13.663 29.523 L 11.663 29.523 L 11.663 27.523 Z M 13.663 27.523 L 15.663 27.523 L 15.663 29.523 L 13.663 29.523 L 13.663 27.523 Z M 17.663 27.523 L 19.663 27.523 L 19.663 29.523 L 17.663 29.523 L 17.663 27.523 Z M 23.663 27.523 L 25.663 27.523 L 25.663 29.523 L 23.663 29.523 L 23.663 27.523 Z M 25.663 27.523 L 27.663 27.523 L 27.663 29.523 L 25.663 29.523 L 25.663 27.523 Z M 33.663 27.523 L 35.663 27.523 L 35.663 29.523 L 33.663 29.523 L 33.663 27.523 Z M 37.663 27.523 L 39.663 27.523 L 39.663 29.523 L 37.663 29.523 L 37.663 27.523 Z M 41.663 27.523 L 43.663 27.523 L 43.663 29.523 L 41.663 29.523 L 41.663 27.523 Z M 45.663 27.523 L 47.663 27.523 L 47.663 29.523 L 45.663 29.523 L 45.663 27.523 Z M 47.663 27.523 L 49.663 27.523 L 49.663 29.523 L 47.663 29.523 L 47.663 27.523 Z M 51.663 27.523 L 53.663 27.523 L 53.663 29.523 L 51.663 29.523 L 51.663 27.523 Z M 55.663 27.523 L 57.663 27.523 L 57.663 29.523 L 55.663 29.523 L 55.663 27.523 Z M 59.663 27.523 L 61.663 27.523 L 61.663 29.523 L 59.663 29.523 L 59.663 27.523 Z M 61.663 27.523 L 63.663 27.523 L 63.663 29.523 L 61.663 29.523 L 61.663 27.523 Z M 65.663 27.523 L 67.663 27.523 L 67.663 29.523 L 65.663 29.523 L 65.663 27.523 Z M 3.663 29.523 L 5.663 29.523 L 5.663 31.523 L 3.663 31.523 L 3.663 29.523 Z M 7.663 29.523 L 9.663 29.523 L 9.663 31.523 L 7.663 31.523 L 7.663 29.523 Z M 15.663 29.523 L 17.663 29.523 L 17.663 31.523 L 15.663 31.523 L 15.663 29.523 Z M 17.663 29.523 L 19.663 29.523 L 19.663 31.523 L 17.663 31.523 L 17.663 29.523 Z M 33.663 29.523 L 35.663 29.523 L 35.663 31.523 L 33.663 31.523 L 33.663 29.523 Z M 35.663 29.523 L 37.663 29.523 L 37.663 31.523 L 35.663 31.523 L 35.663 29.523 Z M 41.663 29.523 L 43.663 29.523 L 43.663 31.523 L 41.663 31.523 L 41.663 29.523 Z M 45.663 29.523 L 47.663 29.523 L 47.663 31.523 L 45.663 31.523 L 45.663 29.523 Z M 47.663 29.523 L 49.663 29.523 L 49.663 31.523 L 47.663 31.523 L 47.663 29.523 Z M 51.663 29.523 L 53.663 29.523 L 53.663 31.523 L 51.663 31.523 L 51.663 29.523 Z M 53.663 29.523 L 55.663 29.523 L 55.663 31.523 L 53.663 31.523 L 53.663 29.523 Z M 55.663 29.523 L 57.663 29.523 L 57.663 31.523 L 55.663 31.523 L 55.663 29.523 Z M 57.663 29.523 L 59.663 29.523 L 59.663 31.523 L 57.663 31.523 L 57.663 29.523 Z M 61.663 29.523 L 63.663 29.523 L 63.663 31.523 L 61.663 31.523 L 61.663 29.523 Z M 65.663 29.523 L 67.663 29.523 L 67.663 31.523 L 65.663 31.523 L 65.663 29.523 Z M 3.663 31.523 L 5.663 31.523 L 5.663 33.523 L 3.663 33.523 L 3.663 31.523 Z M 9.663 31.523 L 11.663 31.523 L 11.663 33.523 L 9.663 33.523 L 9.663 31.523 Z M 21.663 31.523 L 23.663 31.523 L 23.663 33.523 L 21.663 33.523 L 21.663 31.523 Z M 25.663 31.523 L 27.663 31.523 L 27.663 33.523 L 25.663 33.523 L 25.663 31.523 Z M 27.663 31.523 L 29.663 31.523 L 29.663 33.523 L 27.663 33.523 L 27.663 31.523 Z M 37.663 31.523 L 39.663 31.523 L 39.663 33.523 L 37.663 33.523 L 37.663 31.523 Z M 45.663 31.523 L 47.663 31.523 L 47.663 33.523 L 45.663 33.523 L 45.663 31.523 Z M 47.663 31.523 L 49.663 31.523 L 49.663 33.523 L 47.663 33.523 L 47.663 31.523 Z M 51.663 31.523 L 53.663 31.523 L 53.663 33.523 L 51.663 33.523 L 51.663 31.523 Z M 55.663 31.523 L 57.663 31.523 L 57.663 33.523 L 55.663 33.523 L 55.663 31.523 Z M 59.663 31.523 L 61.663 31.523 L 61.663 33.523 L 59.663 33.523 L 59.663 31.523 Z M 61.663 31.523 L 63.663 31.523 L 63.663 33.523 L 61.663 33.523 L 61.663 31.523 Z M 63.663 31.523 L 65.663 31.523 L 65.663 33.523 L 63.663 33.523 L 63.663 31.523 Z M 65.663 31.523 L 67.663 31.523 L 67.663 33.523 L 65.663 33.523 L 65.663 31.523 Z M 67.663 31.523 L 69.663 31.523 L 69.663 33.523 L 67.663 33.523 L 67.663 31.523 Z M 5.663 33.523 L 7.663 33.523 L 7.663 35.523 L 5.663 35.523 L 5.663 33.523 Z M 7.663 33.523 L 9.663 33.523 L 9.663 35.523 L 7.663 35.523 L 7.663 33.523 Z M 15.663 33.523 L 17.663 33.523 L 17.663 35.523 L 15.663 35.523 L 15.663 33.523 Z M 19.663 33.523 L 21.663 33.523 L 21.663 35.523 L 19.663 35.523 L 19.663 33.523 Z M 21.663 33.523 L 23.663 33.523 L 23.663 35.523 L 21.663 35.523 L 21.663 33.523 Z M 25.663 33.523 L 27.663 33.523 L 27.663 35.523 L 25.663 35.523 L 25.663 33.523 Z M 29.663 33.523 L 31.663 33.523 L 31.663 35.523 L 29.663 35.523 L 29.663 33.523 Z M 35.663 33.523 L 37.663 33.523 L 37.663 35.523 L 35.663 35.523 L 35.663 33.523 Z M 43.663 33.523 L 45.663 33.523 L 45.663 35.523 L 43.663 35.523 L 43.663 33.523 Z M 45.663 33.523 L 47.663 33.523 L 47.663 35.523 L 45.663 35.523 L 45.663 33.523 Z M 47.663 33.523 L 49.663 33.523 L 49.663 35.523 L 47.663 35.523 L 47.663 33.523 Z M 49.663 33.523 L 51.663 33.523 L 51.663 35.523 L 49.663 35.523 L 49.663 33.523 Z M 51.663 33.523 L 53.663 33.523 L 53.663 35.523 L 51.663 35.523 L 51.663 33.523 Z M 53.663 33.523 L 55.663 33.523 L 55.663 35.523 L 53.663 35.523 L 53.663 33.523 Z M 55.663 33.523 L 57.663 33.523 L 57.663 35.523 L 55.663 35.523 L 55.663 33.523 Z M 57.663 33.523 L 59.663 33.523 L 59.663 35.523 L 57.663 35.523 L 57.663 33.523 Z M 61.663 33.523 L 63.663 33.523 L 63.663 35.523 L 61.663 35.523 L 61.663 33.523 Z M 63.663 33.523 L 65.663 33.523 L 65.663 35.523 L 63.663 35.523 L 63.663 33.523 Z M 65.663 33.523 L 67.663 33.523 L 67.663 35.523 L 65.663 35.523 L 65.663 33.523 Z M 11.663 35.523 L 13.663 35.523 L 13.663 37.523 L 11.663 37.523 L 11.663 35.523 Z M 13.663 35.523 L 15.663 35.523 L 15.663 37.523 L 13.663 37.523 L 13.663 35.523 Z M 17.663 35.523 L 19.663 35.523 L 19.663 37.523 L 17.663 37.523 L 17.663 35.523 Z M 25.663 35.523 L 27.663 35.523 L 27.663 37.523 L 25.663 37.523 L 25.663 35.523 Z M 31.663 35.523 L 33.663 35.523 L 33.663 37.523 L 31.663 37.523 L 31.663 35.523 Z M 33.663 35.523 L 35.663 35.523 L 35.663 37.523 L 33.663 37.523 L 33.663 35.523 Z M 39.663 35.523 L 41.663 35.523 L 41.663 37.523 L 39.663 37.523 L 39.663 35.523 Z M 41.663 35.523 L 43.663 35.523 L 43.663 37.523 L 41.663 37.523 L 41.663 35.523 Z M 45.663 35.523 L 47.663 35.523 L 47.663 37.523 L 45.663 37.523 L 45.663 35.523 Z M 51.663 35.523 L 53.663 35.523 L 53.663 37.523 L 51.663 37.523 L 51.663 35.523 Z M 55.663 35.523 L 57.663 35.523 L 57.663 37.523 L 55.663 37.523 L 55.663 35.523 Z M 57.663 35.523 L 59.663 35.523 L 59.663 37.523 L 57.663 37.523 L 57.663 35.523 Z M 59.663 35.523 L 61.663 35.523 L 61.663 37.523 L 59.663 37.523 L 59.663 35.523 Z M 65.663 35.523 L 67.663 35.523 L 67.663 37.523 L 65.663 37.523 L 65.663 35.523 Z M 3.663 37.523 L 5.663 37.523 L 5.663 39.523 L 3.663 39.523 L 3.663 37.523 Z M 5.663 37.523 L 7.663 37.523 L 7.663 39.523 L 5.663 39.523 L 5.663 37.523 Z M 11.663 37.523 L 13.663 37.523 L 13.663 39.523 L 11.663 39.523 L 11.663 37.523 Z M 15.663 37.523 L 17.663 37.523 L 17.663 39.523 L 15.663 39.523 L 15.663 37.523 Z M 17.663 37.523 L 19.663 37.523 L 19.663 39.523 L 17.663 39.523 L 17.663 37.523 Z M 19.663 37.523 L 21.663 37.523 L 21.663 39.523 L 19.663 39.523 L 19.663 37.523 Z M 21.663 37.523 L 23.663 37.523 L 23.663 39.523 L 21.663 39.523 L 21.663 37.523 Z M 23.663 37.523 L 25.663 37.523 L 25.663 39.523 L 23.663 39.523 L 23.663 37.523 Z M 29.663 37.523 L 31.663 37.523 L 31.663 39.523 L 29.663 39.523 L 29.663 37.523 Z M 31.663 37.523 L 33.663 37.523 L 33.663 39.523 L 31.663 39.523 L 31.663 37.523 Z M 35.663 37.523 L 37.663 37.523 L 37.663 39.523 L 35.663 39.523 L 35.663 37.523 Z M 39.663 37.523 L 41.663 37.523 L 41.663 39.523 L 39.663 39.523 L 39.663 37.523 Z M 41.663 37.523 L 43.663 37.523 L 43.663 39.523 L 41.663 39.523 L 41.663 37.523 Z M 43.663 37.523 L 45.663 37.523 L 45.663 39.523 L 43.663 39.523 L 43.663 37.523 Z M 45.663 37.523 L 47.663 37.523 L 47.663 39.523 L 45.663 39.523 L 45.663 37.523 Z M 47.663 37.523 L 49.663 37.523 L 49.663 39.523 L 47.663 39.523 L 47.663 37.523 Z M 49.663 37.523 L 51.663 37.523 L 51.663 39.523 L 49.663 39.523 L 49.663 37.523 Z M 55.663 37.523 L 57.663 37.523 L 57.663 39.523 L 55.663 39.523 L 55.663 37.523 Z M 59.663 37.523 L 61.663 37.523 L 61.663 39.523 L 59.663 39.523 L 59.663 37.523 Z M 65.663 37.523 L 67.663 37.523 L 67.663 39.523 L 65.663 39.523 L 65.663 37.523 Z M 3.663 39.523 L 5.663 39.523 L 5.663 41.523 L 3.663 41.523 L 3.663 39.523 Z M 5.663 39.523 L 7.663 39.523 L 7.663 41.523 L 5.663 41.523 L 5.663 39.523 Z M 7.663 39.523 L 9.663 39.523 L 9.663 41.523 L 7.663 41.523 L 7.663 39.523 Z M 23.663 39.523 L 25.663 39.523 L 25.663 41.523 L 23.663 41.523 L 23.663 39.523 Z M 31.663 39.523 L 33.663 39.523 L 33.663 41.523 L 31.663 41.523 L 31.663 39.523 Z M 33.663 39.523 L 35.663 39.523 L 35.663 41.523 L 33.663 41.523 L 33.663 39.523 Z M 39.663 39.523 L 41.663 39.523 L 41.663 41.523 L 39.663 41.523 L 39.663 39.523 Z M 43.663 39.523 L 45.663 39.523 L 45.663 41.523 L 43.663 41.523 L 43.663 39.523 Z M 49.663 39.523 L 51.663 39.523 L 51.663 41.523 L 49.663 41.523 L 49.663 39.523 Z M 51.663 39.523 L 53.663 39.523 L 53.663 41.523 L 51.663 41.523 L 51.663 39.523 Z M 57.663 39.523 L 59.663 39.523 L 59.663 41.523 L 57.663 41.523 L 57.663 39.523 Z M 61.663 39.523 L 63.663 39.523 L 63.663 41.523 L 61.663 41.523 L 61.663 39.523 Z M 65.663 39.523 L 67.663 39.523 L 67.663 41.523 L 65.663 41.523 L 65.663 39.523 Z M 3.663 41.523 L 5.663 41.523 L 5.663 43.523 L 3.663 43.523 L 3.663 41.523 Z M 13.663 41.523 L 15.663 41.523 L 15.663 43.523 L 13.663 43.523 L 13.663 41.523 Z M 15.663 41.523 L 17.663 41.523 L 17.663 43.523 L 15.663 43.523 L 15.663 41.523 Z M 17.663 41.523 L 19.663 41.523 L 19.663 43.523 L 17.663 43.523 L 17.663 41.523 Z M 19.663 41.523 L 21.663 41.523 L 21.663 43.523 L 19.663 43.523 L 19.663 41.523 Z M 25.663 41.523 L 27.663 41.523 L 27.663 43.523 L 25.663 43.523 L 25.663 41.523 Z M 27.663 41.523 L 29.663 41.523 L 29.663 43.523 L 27.663 43.523 L 27.663 41.523 Z M 31.663 41.523 L 33.663 41.523 L 33.663 43.523 L 31.663 43.523 L 31.663 41.523 Z M 39.663 41.523 L 41.663 41.523 L 41.663 43.523 L 39.663 43.523 L 39.663 41.523 Z M 45.663 41.523 L 47.663 41.523 L 47.663 43.523 L 45.663 43.523 L 45.663 41.523 Z M 55.663 41.523 L 57.663 41.523 L 57.663 43.523 L 55.663 43.523 L 55.663 41.523 Z M 63.663 41.523 L 65.663 41.523 L 65.663 43.523 L 63.663 43.523 L 63.663 41.523 Z M 67.663 41.523 L 69.663 41.523 L 69.663 43.523 L 67.663 43.523 L 67.663 41.523 Z M 3.663 43.523 L 5.663 43.523 L 5.663 45.523 L 3.663 45.523 L 3.663 43.523 Z M 7.663 43.523 L 9.663 43.523 L 9.663 45.523 L 7.663 45.523 L 7.663 43.523 Z M 9.663 43.523 L 11.663 43.523 L 11.663 45.523 L 9.663 45.523 L 9.663 43.523 Z M 19.663 43.523 L 21.663 43.523 L 21.663 45.523 L 19.663 45.523 L 19.663 43.523 Z M 23.663 43.523 L 25.663 43.523 L 25.663 45.523 L 23.663 45.523 L 23.663 43.523 Z M 29.663 43.523 L 31.663 43.523 L 31.663 45.523 L 29.663 45.523 L 29.663 43.523 Z M 33.663 43.523 L 35.663 43.523 L 35.663 45.523 L 33.663 45.523 L 33.663 43.523 Z M 41.663 43.523 L 43.663 43.523 L 43.663 45.523 L 41.663 45.523 L 41.663 43.523 Z M 43.663 43.523 L 45.663 43.523 L 45.663 45.523 L 43.663 45.523 L 43.663 43.523 Z M 45.663 43.523 L 47.663 43.523 L 47.663 45.523 L 45.663 45.523 L 45.663 43.523 Z M 49.663 43.523 L 51.663 43.523 L 51.663 45.523 L 49.663 45.523 L 49.663 43.523 Z M 53.663 43.523 L 55.663 43.523 L 55.663 45.523 L 53.663 45.523 L 53.663 43.523 Z M 57.663 43.523 L 59.663 43.523 L 59.663 45.523 L 57.663 45.523 L 57.663 43.523 Z M 3.663 45.523 L 5.663 45.523 L 5.663 47.523 L 3.663 47.523 L 3.663 45.523 Z M 9.663 45.523 L 11.663 45.523 L 11.663 47.523 L 9.663 47.523 L 9.663 45.523 Z M 11.663 45.523 L 13.663 45.523 L 13.663 47.523 L 11.663 47.523 L 11.663 45.523 Z M 13.663 45.523 L 15.663 45.523 L 15.663 47.523 L 13.663 47.523 L 13.663 45.523 Z M 15.663 45.523 L 17.663 45.523 L 17.663 47.523 L 15.663 47.523 L 15.663 45.523 Z M 17.663 45.523 L 19.663 45.523 L 19.663 47.523 L 17.663 47.523 L 17.663 45.523 Z M 21.663 45.523 L 23.663 45.523 L 23.663 47.523 L 21.663 47.523 L 21.663 45.523 Z M 23.663 45.523 L 25.663 45.523 L 25.663 47.523 L 23.663 47.523 L 23.663 45.523 Z M 31.663 45.523 L 33.663 45.523 L 33.663 47.523 L 31.663 47.523 L 31.663 45.523 Z M 35.663 45.523 L 37.663 45.523 L 37.663 47.523 L 35.663 47.523 L 35.663 45.523 Z M 37.663 45.523 L 39.663 45.523 L 39.663 47.523 L 37.663 47.523 L 37.663 45.523 Z M 39.663 45.523 L 41.663 45.523 L 41.663 47.523 L 39.663 47.523 L 39.663 45.523 Z M 47.663 45.523 L 49.663 45.523 L 49.663 47.523 L 47.663 47.523 L 47.663 45.523 Z M 49.663 45.523 L 51.663 45.523 L 51.663 47.523 L 49.663 47.523 L 49.663 45.523 Z M 51.663 45.523 L 53.663 45.523 L 53.663 47.523 L 51.663 47.523 L 51.663 45.523 Z M 53.663 45.523 L 55.663 45.523 L 55.663 47.523 L 53.663 47.523 L 53.663 45.523 Z M 67.663 45.523 L 69.663 45.523 L 69.663 47.523 L 67.663 47.523 L 67.663 45.523 Z M 7.663 47.523 L 9.663 47.523 L 9.663 49.523 L 7.663 49.523 L 7.663 47.523 Z M 9.663 47.523 L 11.663 47.523 L 11.663 49.523 L 9.663 49.523 L 9.663 47.523 Z M 17.663 47.523 L 19.663 47.523 L 19.663 49.523 L 17.663 49.523 L 17.663 47.523 Z M 21.663 47.523 L 23.663 47.523 L 23.663 49.523 L 21.663 49.523 L 21.663 47.523 Z M 23.663 47.523 L 25.663 47.523 L 25.663 49.523 L 23.663 49.523 L 23.663 47.523 Z M 25.663 47.523 L 27.663 47.523 L 27.663 49.523 L 25.663 49.523 L 25.663 47.523 Z M 27.663 47.523 L 29.663 47.523 L 29.663 49.523 L 27.663 49.523 L 27.663 47.523 Z M 29.663 47.523 L 31.663 47.523 L 31.663 49.523 L 29.663 49.523 L 29.663 47.523 Z M 31.663 47.523 L 33.663 47.523 L 33.663 49.523 L 31.663 49.523 L 31.663 47.523 Z M 33.663 47.523 L 35.663 47.523 L 35.663 49.523 L 33.663 49.523 L 33.663 47.523 Z M 37.663 47.523 L 39.663 47.523 L 39.663 49.523 L 37.663 49.523 L 37.663 47.523 Z M 41.663 47.523 L 43.663 47.523 L 43.663 49.523 L 41.663 49.523 L 41.663 47.523 Z M 43.663 47.523 L 45.663 47.523 L 45.663 49.523 L 43.663 49.523 L 43.663 47.523 Z M 45.663 47.523 L 47.663 47.523 L 47.663 49.523 L 45.663 49.523 L 45.663 47.523 Z M 55.663 47.523 L 57.663 47.523 L 57.663 49.523 L 55.663 49.523 L 55.663 47.523 Z M 65.663 47.523 L 67.663 47.523 L 67.663 49.523 L 65.663 49.523 L 65.663 47.523 Z M 67.663 47.523 L 69.663 47.523 L 69.663 49.523 L 67.663 49.523 L 67.663 47.523 Z M 3.663 49.523 L 5.663 49.523 L 5.663 51.523 L 3.663 51.523 L 3.663 49.523 Z M 5.663 49.523 L 7.663 49.523 L 7.663 51.523 L 5.663 51.523 L 5.663 49.523 Z M 7.663 49.523 L 9.663 49.523 L 9.663 51.523 L 7.663 51.523 L 7.663 49.523 Z M 9.663 49.523 L 11.663 49.523 L 11.663 51.523 L 9.663 51.523 L 9.663 49.523 Z M 11.663 49.523 L 13.663 49.523 L 13.663 51.523 L 11.663 51.523 L 11.663 49.523 Z M 13.663 49.523 L 15.663 49.523 L 15.663 51.523 L 13.663 51.523 L 13.663 49.523 Z M 15.663 49.523 L 17.663 49.523 L 17.663 51.523 L 15.663 51.523 L 15.663 49.523 Z M 17.663 49.523 L 19.663 49.523 L 19.663 51.523 L 17.663 51.523 L 17.663 49.523 Z M 19.663 49.523 L 21.663 49.523 L 21.663 51.523 L 19.663 51.523 L 19.663 49.523 Z M 25.663 49.523 L 27.663 49.523 L 27.663 51.523 L 25.663 51.523 L 25.663 49.523 Z M 27.663 49.523 L 29.663 49.523 L 29.663 51.523 L 27.663 51.523 L 27.663 49.523 Z M 37.663 49.523 L 39.663 49.523 L 39.663 51.523 L 37.663 51.523 L 37.663 49.523 Z M 43.663 49.523 L 45.663 49.523 L 45.663 51.523 L 43.663 51.523 L 43.663 49.523 Z M 45.663 49.523 L 47.663 49.523 L 47.663 51.523 L 45.663 51.523 L 45.663 49.523 Z M 47.663 49.523 L 49.663 49.523 L 49.663 51.523 L 47.663 51.523 L 47.663 49.523 Z M 51.663 49.523 L 53.663 49.523 L 53.663 51.523 L 51.663 51.523 L 51.663 49.523 Z M 55.663 49.523 L 57.663 49.523 L 57.663 51.523 L 55.663 51.523 L 55.663 49.523 Z M 57.663 49.523 L 59.663 49.523 L 59.663 51.523 L 57.663 51.523 L 57.663 49.523 Z M 59.663 49.523 L 61.663 49.523 L 61.663 51.523 L 59.663 51.523 L 59.663 49.523 Z M 61.663 49.523 L 63.663 49.523 L 63.663 51.523 L 61.663 51.523 L 61.663 49.523 Z M 63.663 49.523 L 65.663 49.523 L 65.663 51.523 L 63.663 51.523 L 63.663 49.523 Z M 67.663 49.523 L 69.663 49.523 L 69.663 51.523 L 67.663 51.523 L 67.663 49.523 Z M 5.663 51.523 L 7.663 51.523 L 7.663 53.523 L 5.663 53.523 L 5.663 51.523 Z M 7.663 51.523 L 9.663 51.523 L 9.663 53.523 L 7.663 53.523 L 7.663 51.523 Z M 9.663 51.523 L 11.663 51.523 L 11.663 53.523 L 9.663 53.523 L 9.663 51.523 Z M 25.663 51.523 L 27.663 51.523 L 27.663 53.523 L 25.663 53.523 L 25.663 51.523 Z M 27.663 51.523 L 29.663 51.523 L 29.663 53.523 L 27.663 53.523 L 27.663 51.523 Z M 33.663 51.523 L 35.663 51.523 L 35.663 53.523 L 33.663 53.523 L 33.663 51.523 Z M 37.663 51.523 L 39.663 51.523 L 39.663 53.523 L 37.663 53.523 L 37.663 51.523 Z M 45.663 51.523 L 47.663 51.523 L 47.663 53.523 L 45.663 53.523 L 45.663 51.523 Z M 59.663 51.523 L 61.663 51.523 L 61.663 53.523 L 59.663 53.523 L 59.663 51.523 Z M 61.663 51.523 L 63.663 51.523 L 63.663 53.523 L 61.663 53.523 L 61.663 51.523 Z M 3.663 53.523 L 5.663 53.523 L 5.663 55.523 L 3.663 55.523 L 3.663 53.523 Z M 7.663 53.523 L 9.663 53.523 L 9.663 55.523 L 7.663 55.523 L 7.663 53.523 Z M 9.663 53.523 L 11.663 53.523 L 11.663 55.523 L 9.663 55.523 L 9.663 53.523 Z M 11.663 53.523 L 13.663 53.523 L 13.663 55.523 L 11.663 55.523 L 11.663 53.523 Z M 15.663 53.523 L 17.663 53.523 L 17.663 55.523 L 15.663 55.523 L 15.663 53.523 Z M 23.663 53.523 L 25.663 53.523 L 25.663 55.523 L 23.663 55.523 L 23.663 53.523 Z M 25.663 53.523 L 27.663 53.523 L 27.663 55.523 L 25.663 55.523 L 25.663 53.523 Z M 35.663 53.523 L 37.663 53.523 L 37.663 55.523 L 35.663 55.523 L 35.663 53.523 Z M 41.663 53.523 L 43.663 53.523 L 43.663 55.523 L 41.663 55.523 L 41.663 53.523 Z M 45.663 53.523 L 47.663 53.523 L 47.663 55.523 L 45.663 55.523 L 45.663 53.523 Z M 51.663 53.523 L 53.663 53.523 L 53.663 55.523 L 51.663 55.523 L 51.663 53.523 Z M 53.663 53.523 L 55.663 53.523 L 55.663 55.523 L 53.663 55.523 L 53.663 53.523 Z M 55.663 53.523 L 57.663 53.523 L 57.663 55.523 L 55.663 55.523 L 55.663 53.523 Z M 57.663 53.523 L 59.663 53.523 L 59.663 55.523 L 57.663 55.523 L 57.663 53.523 Z M 59.663 53.523 L 61.663 53.523 L 61.663 55.523 L 59.663 55.523 L 59.663 53.523 Z M 61.663 53.523 L 63.663 53.523 L 63.663 55.523 L 61.663 55.523 L 61.663 53.523 Z M 65.663 53.523 L 67.663 53.523 L 67.663 55.523 L 65.663 55.523 L 65.663 53.523 Z M 67.663 53.523 L 69.663 53.523 L 69.663 55.523 L 67.663 55.523 L 67.663 53.523 Z M 19.663 55.523 L 21.663 55.523 L 21.663 57.523 L 19.663 57.523 L 19.663 55.523 Z M 23.663 55.523 L 25.663 55.523 L 25.663 57.523 L 23.663 57.523 L 23.663 55.523 Z M 25.663 55.523 L 27.663 55.523 L 27.663 57.523 L 25.663 57.523 L 25.663 55.523 Z M 27.663 55.523 L 29.663 55.523 L 29.663 57.523 L 27.663 57.523 L 27.663 55.523 Z M 29.663 55.523 L 31.663 55.523 L 31.663 57.523 L 29.663 57.523 L 29.663 55.523 Z M 31.663 55.523 L 33.663 55.523 L 33.663 57.523 L 31.663 57.523 L 31.663 55.523 Z M 41.663 55.523 L 43.663 55.523 L 43.663 57.523 L 41.663 57.523 L 41.663 55.523 Z M 43.663 55.523 L 45.663 55.523 L 45.663 57.523 L 43.663 57.523 L 43.663 55.523 Z M 47.663 55.523 L 49.663 55.523 L 49.663 57.523 L 47.663 57.523 L 47.663 55.523 Z M 49.663 55.523 L 51.663 55.523 L 51.663 57.523 L 49.663 57.523 L 49.663 55.523 Z M 51.663 55.523 L 53.663 55.523 L 53.663 57.523 L 51.663 57.523 L 51.663 55.523 Z M 59.663 55.523 L 61.663 55.523 L 61.663 57.523 L 59.663 57.523 L 59.663 55.523 Z M 61.663 55.523 L 63.663 55.523 L 63.663 57.523 L 61.663 57.523 L 61.663 55.523 Z M 67.663 55.523 L 69.663 55.523 L 69.663 57.523 L 67.663 57.523 L 67.663 55.523 Z M 3.663 57.523 L 5.663 57.523 L 5.663 59.523 L 3.663 59.523 L 3.663 57.523 Z M 5.663 57.523 L 7.663 57.523 L 7.663 59.523 L 5.663 59.523 L 5.663 57.523 Z M 7.663 57.523 L 9.663 57.523 L 9.663 59.523 L 7.663 59.523 L 7.663 57.523 Z M 9.663 57.523 L 11.663 57.523 L 11.663 59.523 L 9.663 59.523 L 9.663 57.523 Z M 11.663 57.523 L 13.663 57.523 L 13.663 59.523 L 11.663 59.523 L 11.663 57.523 Z M 13.663 57.523 L 15.663 57.523 L 15.663 59.523 L 13.663 59.523 L 13.663 57.523 Z M 15.663 57.523 L 17.663 57.523 L 17.663 59.523 L 15.663 59.523 L 15.663 57.523 Z M 19.663 57.523 L 21.663 57.523 L 21.663 59.523 L 19.663 59.523 L 19.663 57.523 Z M 35.663 57.523 L 37.663 57.523 L 37.663 59.523 L 35.663 59.523 L 35.663 57.523 Z M 37.663 57.523 L 39.663 57.523 L 39.663 59.523 L 37.663 59.523 L 37.663 57.523 Z M 39.663 57.523 L 41.663 57.523 L 41.663 59.523 L 39.663 59.523 L 39.663 57.523 Z M 43.663 57.523 L 45.663 57.523 L 45.663 59.523 L 43.663 59.523 L 43.663 57.523 Z M 45.663 57.523 L 47.663 57.523 L 47.663 59.523 L 45.663 59.523 L 45.663 57.523 Z M 51.663 57.523 L 53.663 57.523 L 53.663 59.523 L 51.663 59.523 L 51.663 57.523 Z M 55.663 57.523 L 57.663 57.523 L 57.663 59.523 L 55.663 59.523 L 55.663 57.523 Z M 59.663 57.523 L 61.663 57.523 L 61.663 59.523 L 59.663 59.523 L 59.663 57.523 Z M 61.663 57.523 L 63.663 57.523 L 63.663 59.523 L 61.663 59.523 L 61.663 57.523 Z M 63.663 57.523 L 65.663 57.523 L 65.663 59.523 L 63.663 59.523 L 63.663 57.523 Z M 65.663 57.523 L 67.663 57.523 L 67.663 59.523 L 65.663 59.523 L 65.663 57.523 Z M 3.663 59.523 L 5.663 59.523 L 5.663 61.523 L 3.663 61.523 L 3.663 59.523 Z M 15.663 59.523 L 17.663 59.523 L 17.663 61.523 L 15.663 61.523 L 15.663 59.523 Z M 19.663 59.523 L 21.663 59.523 L 21.663 61.523 L 19.663 61.523 L 19.663 59.523 Z M 21.663 59.523 L 23.663 59.523 L 23.663 61.523 L 21.663 61.523 L 21.663 59.523 Z M 31.663 59.523 L 33.663 59.523 L 33.663 61.523 L 31.663 61.523 L 31.663 59.523 Z M 33.663 59.523 L 35.663 59.523 L 35.663 61.523 L 33.663 61.523 L 33.663 59.523 Z M 39.663 59.523 L 41.663 59.523 L 41.663 61.523 L 39.663 61.523 L 39.663 59.523 Z M 43.663 59.523 L 45.663 59.523 L 45.663 61.523 L 43.663 61.523 L 43.663 59.523 Z M 51.663 59.523 L 53.663 59.523 L 53.663 61.523 L 51.663 61.523 L 51.663 59.523 Z M 59.663 59.523 L 61.663 59.523 L 61.663 61.523 L 59.663 61.523 L 59.663 59.523 Z M 67.663 59.523 L 69.663 59.523 L 69.663 61.523 L 67.663 61.523 L 67.663 59.523 Z M 3.663 61.523 L 5.663 61.523 L 5.663 63.523 L 3.663 63.523 L 3.663 61.523 Z M 7.663 61.523 L 9.663 61.523 L 9.663 63.523 L 7.663 63.523 L 7.663 61.523 Z M 9.663 61.523 L 11.663 61.523 L 11.663 63.523 L 9.663 63.523 L 9.663 61.523 Z M 11.663 61.523 L 13.663 61.523 L 13.663 63.523 L 11.663 63.523 L 11.663 61.523 Z M 15.663 61.523 L 17.663 61.523 L 17.663 63.523 L 15.663 63.523 L 15.663 61.523 Z M 25.663 61.523 L 27.663 61.523 L 27.663 63.523 L 25.663 63.523 L 25.663 61.523 Z M 29.663 61.523 L 31.663 61.523 L 31.663 63.523 L 29.663 63.523 L 29.663 61.523 Z M 39.663 61.523 L 41.663 61.523 L 41.663 63.523 L 39.663 63.523 L 39.663 61.523 Z M 47.663 61.523 L 49.663 61.523 L 49.663 63.523 L 47.663 63.523 L 47.663 61.523 Z M 51.663 61.523 L 53.663 61.523 L 53.663 63.523 L 51.663 63.523 L 51.663 61.523 Z M 53.663 61.523 L 55.663 61.523 L 55.663 63.523 L 53.663 63.523 L 53.663 61.523 Z M 55.663 61.523 L 57.663 61.523 L 57.663 63.523 L 55.663 63.523 L 55.663 61.523 Z M 57.663 61.523 L 59.663 61.523 L 59.663 63.523 L 57.663 63.523 L 57.663 61.523 Z M 59.663 61.523 L 61.663 61.523 L 61.663 63.523 L 59.663 63.523 L 59.663 61.523 Z M 61.663 61.523 L 63.663 61.523 L 63.663 63.523 L 61.663 63.523 L 61.663 61.523 Z M 65.663 61.523 L 67.663 61.523 L 67.663 63.523 L 65.663 63.523 L 65.663 61.523 Z M 67.663 61.523 L 69.663 61.523 L 69.663 63.523 L 67.663 63.523 L 67.663 61.523 Z M 3.663 63.523 L 5.663 63.523 L 5.663 65.523 L 3.663 65.523 L 3.663 63.523 Z M 7.663 63.523 L 9.663 63.523 L 9.663 65.523 L 7.663 65.523 L 7.663 63.523 Z M 9.663 63.523 L 11.663 63.523 L 11.663 65.523 L 9.663 65.523 L 9.663 63.523 Z M 11.663 63.523 L 13.663 63.523 L 13.663 65.523 L 11.663 65.523 L 11.663 63.523 Z M 15.663 63.523 L 17.663 63.523 L 17.663 65.523 L 15.663 65.523 L 15.663 63.523 Z M 19.663 63.523 L 21.663 63.523 L 21.663 65.523 L 19.663 65.523 L 19.663 63.523 Z M 21.663 63.523 L 23.663 63.523 L 23.663 65.523 L 21.663 65.523 L 21.663 63.523 Z M 33.663 63.523 L 35.663 63.523 L 35.663 65.523 L 33.663 65.523 L 33.663 63.523 Z M 37.663 63.523 L 39.663 63.523 L 39.663 65.523 L 37.663 65.523 L 37.663 63.523 Z M 39.663 63.523 L 41.663 63.523 L 41.663 65.523 L 39.663 65.523 L 39.663 63.523 Z M 41.663 63.523 L 43.663 63.523 L 43.663 65.523 L 41.663 65.523 L 41.663 63.523 Z M 43.663 63.523 L 45.663 63.523 L 45.663 65.523 L 43.663 65.523 L 43.663 63.523 Z M 49.663 63.523 L 51.663 63.523 L 51.663 65.523 L 49.663 65.523 L 49.663 63.523 Z M 55.663 63.523 L 57.663 63.523 L 57.663 65.523 L 55.663 65.523 L 55.663 63.523 Z M 59.663 63.523 L 61.663 63.523 L 61.663 65.523 L 59.663 65.523 L 59.663 63.523 Z M 65.663 63.523 L 67.663 63.523 L 67.663 65.523 L 65.663 65.523 L 65.663 63.523 Z M 3.663 65.523 L 5.663 65.523 L 5.663 67.523 L 3.663 67.523 L 3.663 65.523 Z M 7.663 65.523 L 9.663 65.523 L 9.663 67.523 L 7.663 67.523 L 7.663 65.523 Z M 9.663 65.523 L 11.663 65.523 L 11.663 67.523 L 9.663 67.523 L 9.663 65.523 Z M 11.663 65.523 L 13.663 65.523 L 13.663 67.523 L 11.663 67.523 L 11.663 65.523 Z M 15.663 65.523 L 17.663 65.523 L 17.663 67.523 L 15.663 67.523 L 15.663 65.523 Z M 21.663 65.523 L 23.663 65.523 L 23.663 67.523 L 21.663 67.523 L 21.663 65.523 Z M 23.663 65.523 L 25.663 65.523 L 25.663 67.523 L 23.663 67.523 L 23.663 65.523 Z M 29.663 65.523 L 31.663 65.523 L 31.663 67.523 L 29.663 67.523 L 29.663 65.523 Z M 31.663 65.523 L 33.663 65.523 L 33.663 67.523 L 31.663 67.523 L 31.663 65.523 Z M 33.663 65.523 L 35.663 65.523 L 35.663 67.523 L 33.663 67.523 L 33.663 65.523 Z M 35.663 65.523 L 37.663 65.523 L 37.663 67.523 L 35.663 67.523 L 35.663 65.523 Z M 39.663 65.523 L 41.663 65.523 L 41.663 67.523 L 39.663 67.523 L 39.663 65.523 Z M 49.663 65.523 L 51.663 65.523 L 51.663 67.523 L 49.663 67.523 L 49.663 65.523 Z M 51.663 65.523 L 53.663 65.523 L 53.663 67.523 L 51.663 67.523 L 51.663 65.523 Z M 59.663 65.523 L 61.663 65.523 L 61.663 67.523 L 59.663 67.523 L 59.663 65.523 Z M 67.663 65.523 L 69.663 65.523 L 69.663 67.523 L 67.663 67.523 L 67.663 65.523 Z M 3.663 67.523 L 5.663 67.523 L 5.663 69.523 L 3.663 69.523 L 3.663 67.523 Z M 15.663 67.523 L 17.663 67.523 L 17.663 69.523 L 15.663 69.523 L 15.663 67.523 Z M 19.663 67.523 L 21.663 67.523 L 21.663 69.523 L 19.663 69.523 L 19.663 67.523 Z M 25.663 67.523 L 27.663 67.523 L 27.663 69.523 L 25.663 69.523 L 25.663 67.523 Z M 33.663 67.523 L 35.663 67.523 L 35.663 69.523 L 33.663 69.523 L 33.663 67.523 Z M 37.663 67.523 L 39.663 67.523 L 39.663 69.523 L 37.663 69.523 L 37.663 67.523 Z M 39.663 67.523 L 41.663 67.523 L 41.663 69.523 L 39.663 69.523 L 39.663 67.523 Z M 45.663 67.523 L 47.663 67.523 L 47.663 69.523 L 45.663 69.523 L 45.663 67.523 Z M 47.663 67.523 L 49.663 67.523 L 49.663 69.523 L 47.663 69.523 L 47.663 67.523 Z M 51.663 67.523 L 53.663 67.523 L 53.663 69.523 L 51.663 69.523 L 51.663 67.523 Z M 3.663 69.523 L 5.663 69.523 L 5.663 71.523 L 3.663 71.523 L 3.663 69.523 Z M 5.663 69.523 L 7.663 69.523 L 7.663 71.523 L 5.663 71.523 L 5.663 69.523 Z M 7.663 69.523 L 9.663 69.523 L 9.663 71.523 L 7.663 71.523 L 7.663 69.523 Z M 9.663 69.523 L 11.663 69.523 L 11.663 71.523 L 9.663 71.523 L 9.663 69.523 Z M 11.663 69.523 L 13.663 69.523 L 13.663 71.523 L 11.663 71.523 L 11.663 69.523 Z M 13.663 69.523 L 15.663 69.523 L 15.663 71.523 L 13.663 71.523 L 13.663 69.523 Z M 15.663 69.523 L 17.663 69.523 L 17.663 71.523 L 15.663 71.523 L 15.663 69.523 Z M 23.663 69.523 L 25.663 69.523 L 25.663 71.523 L 23.663 71.523 L 23.663 69.523 Z M 27.663 69.523 L 29.663 69.523 L 29.663 71.523 L 27.663 71.523 L 27.663 69.523 Z M 29.663 69.523 L 31.663 69.523 L 31.663 71.523 L 29.663 71.523 L 29.663 69.523 Z M 31.663 69.523 L 33.663 69.523 L 33.663 71.523 L 31.663 71.523 L 31.663 69.523 Z M 45.663 69.523 L 47.663 69.523 L 47.663 71.523 L 45.663 71.523 L 45.663 69.523 Z M 51.663 69.523 L 53.663 69.523 L 53.663 71.523 L 51.663 71.523 L 51.663 69.523 Z M 59.663 69.523 L 61.663 69.523 L 61.663 71.523 L 59.663 71.523 L 59.663 69.523 Z M 61.663 69.523 L 63.663 69.523 L 63.663 71.523 L 61.663 71.523 L 61.663 69.523 Z M 65.663 69.523 L 67.663 69.523 L 67.663 71.523 L 65.663 71.523 L 65.663 69.523 Z" stroke="transparent" fill="black"/>
</svg>